<svg width="167" height="40" viewBox="0 0 167 40" fill="none" xmlns="http://www.w3.org/2000/svg">
<mask id="mask0_3_30481" style="mask-type:alpha" maskUnits="userSpaceOnUse" x="0" y="2" width="33" height="36">
<path d="M13.3084 2.83456C15.2357 1.72181 17.6103 1.72181 19.5376 2.83456L29.7314 8.71994C31.6587 9.83268 32.846 11.8891 32.846 14.1146V25.8854C32.846 28.1109 31.6588 30.1673 29.7314 31.2801L19.5376 37.1654C17.6103 38.2782 15.2357 38.2782 13.3084 37.1654L3.11463 31.2801C1.18729 30.1673 0 28.1109 0 25.8854V14.1146C0 11.8891 1.18729 9.83268 3.11462 8.71994L13.3084 2.83456Z" fill="#C4C4C4"/>
</mask>
<g mask="url(#mask0_3_30481)">
<rect width="20.7869" height="20.7869" transform="matrix(0.866025 0.5 -0.866025 0.5 16.4229 0.727173)" fill="#4A3AFF"/>
<rect width="19.1268" height="19.1268" transform="matrix(0.866025 0.5 -2.20305e-08 1 -0.141602 11.271)" fill="#4CBFFF"/>
<rect width="19.1268" height="19.1268" transform="matrix(0.866025 -0.5 2.20305e-08 1 16.4229 20.837)" fill="#9328FF"/>
</g>
<path d="M53.3137 30V13.284H47.6017V10.4H62.6377V13.284H56.8977V30H53.3137ZM69.441 30.336C68.041 30.336 66.7997 30.0373 65.717 29.44C64.6344 28.8427 63.785 28.0027 63.169 26.92C62.553 25.8373 62.245 24.5867 62.245 23.168C62.245 21.7307 62.5437 20.452 63.141 19.332C63.757 18.212 64.597 17.344 65.661 16.728C66.7437 16.0933 68.013 15.776 69.469 15.776C70.8317 15.776 72.0357 16.0747 73.081 16.672C74.1264 17.2693 74.9384 18.0907 75.517 19.136C76.1144 20.1627 76.413 21.3107 76.413 22.58C76.413 22.7853 76.4037 23 76.385 23.224C76.385 23.448 76.3757 23.6813 76.357 23.924H65.801C65.8757 25.0067 66.249 25.856 66.921 26.472C67.6117 27.088 68.4424 27.396 69.413 27.396C70.141 27.396 70.7477 27.2373 71.233 26.92C71.737 26.584 72.1104 26.1547 72.353 25.632H75.993C75.7317 26.5093 75.293 27.312 74.677 28.04C74.0797 28.7493 73.333 29.3093 72.437 29.72C71.5597 30.1307 70.561 30.336 69.441 30.336ZM69.469 18.688C68.5917 18.688 67.817 18.94 67.145 19.444C66.473 19.9293 66.0437 20.676 65.857 21.684H72.773C72.717 20.7693 72.381 20.0413 71.765 19.5C71.149 18.9587 70.3837 18.688 69.469 18.688ZM86.2314 30.336C84.8128 30.336 83.5621 30.028 82.4794 29.412C81.3968 28.796 80.5381 27.9373 79.9034 26.836C79.2874 25.7347 78.9794 24.4747 78.9794 23.056C78.9794 21.6373 79.2874 20.3773 79.9034 19.276C80.5381 18.1747 81.3968 17.316 82.4794 16.7C83.5621 16.084 84.8128 15.776 86.2314 15.776C88.0048 15.776 89.4981 16.2427 90.7114 17.176C91.9248 18.0907 92.6994 19.36 93.0354 20.984H89.2554C89.0688 20.312 88.6954 19.7893 88.1354 19.416C87.5941 19.024 86.9501 18.828 86.2034 18.828C85.2141 18.828 84.3741 19.2013 83.6834 19.948C82.9928 20.6947 82.6474 21.7307 82.6474 23.056C82.6474 24.3813 82.9928 25.4173 83.6834 26.164C84.3741 26.9107 85.2141 27.284 86.2034 27.284C86.9501 27.284 87.5941 27.0973 88.1354 26.724C88.6954 26.3507 89.0688 25.8187 89.2554 25.128H93.0354C92.6994 26.696 91.9248 27.956 90.7114 28.908C89.4981 29.86 88.0048 30.336 86.2314 30.336ZM96.2165 30V9.84H99.8005V18.24C100.267 17.4747 100.892 16.8773 101.676 16.448C102.479 16 103.394 15.776 104.42 15.776C106.138 15.776 107.463 16.3173 108.396 17.4C109.348 18.4827 109.824 20.0693 109.824 22.16V30H106.268V22.496C106.268 21.3013 106.026 20.3867 105.54 19.752C105.074 19.1173 104.327 18.8 103.3 18.8C102.292 18.8 101.452 19.1547 100.78 19.864C100.127 20.5733 99.8005 21.5627 99.8005 22.832V30H96.2165Z" fill="#170F49"/>
<path d="M113.336 30V10.4H116.92V18.548H125.712V10.4H129.296V30H125.712V21.46H116.92V30H113.336ZM138.229 30.336C136.493 30.336 135.149 29.7947 134.197 28.712C133.264 27.6293 132.797 26.0427 132.797 23.952V16.112H136.353V23.616C136.353 24.8107 136.596 25.7253 137.081 26.36C137.567 26.9947 138.332 27.312 139.377 27.312C140.367 27.312 141.179 26.9573 141.813 26.248C142.467 25.5387 142.793 24.5493 142.793 23.28V16.112H146.377V30H143.213L142.933 27.648C142.504 28.4693 141.879 29.1227 141.057 29.608C140.255 30.0933 139.312 30.336 138.229 30.336ZM158.288 30.336C157.243 30.336 156.328 30.14 155.544 29.748C154.76 29.356 154.126 28.8053 153.64 28.096L153.248 30H150.056V9.84H153.64V18.1C154.088 17.484 154.676 16.9427 155.404 16.476C156.151 16.0093 157.112 15.776 158.288 15.776C159.595 15.776 160.762 16.0933 161.788 16.728C162.815 17.3627 163.627 18.2307 164.224 19.332C164.822 20.4333 165.12 21.684 165.12 23.084C165.12 24.484 164.822 25.7347 164.224 26.836C163.627 27.9187 162.815 28.7773 161.788 29.412C160.762 30.028 159.595 30.336 158.288 30.336ZM157.532 27.2C158.671 27.2 159.614 26.8173 160.36 26.052C161.107 25.2867 161.48 24.2973 161.48 23.084C161.48 21.8707 161.107 20.872 160.36 20.088C159.614 19.304 158.671 18.912 157.532 18.912C156.375 18.912 155.423 19.304 154.676 20.088C153.948 20.8533 153.584 21.8427 153.584 23.056C153.584 24.2693 153.948 25.268 154.676 26.052C155.423 26.8173 156.375 27.2 157.532 27.2Z" fill="#4A3AFF"/>
</svg>
