<svg width="33" height="36" viewBox="0 0 33 36" fill="none" xmlns="http://www.w3.org/2000/svg">
<mask id="mask0_3_30483" style="mask-type:alpha" maskUnits="userSpaceOnUse" x="0" y="0" width="33" height="36">
<path d="M13.3084 0.834561C15.2357 -0.278186 17.6103 -0.278188 19.5376 0.83456L29.7314 6.71994C31.6587 7.83268 32.846 9.88913 32.846 12.1146V23.8854C32.846 26.1109 31.6588 28.1673 29.7314 29.2801L19.5376 35.1654C17.6103 36.2782 15.2357 36.2782 13.3084 35.1654L3.11463 29.2801C1.18729 28.1673 0 26.1109 0 23.8854V12.1146C0 9.88913 1.18729 7.83268 3.11462 6.71994L13.3084 0.834561Z" fill="#C4C4C4"/>
</mask>
<g mask="url(#mask0_3_30483)">
<rect width="20.7869" height="20.7869" transform="matrix(0.866025 0.5 -0.866025 0.5 16.4229 -1.27283)" fill="#4A3AFF"/>
<rect width="19.1268" height="19.1268" transform="matrix(0.866025 0.5 -2.20305e-08 1 -0.141602 9.271)" fill="#4CBFFF"/>
<rect width="19.1268" height="19.1268" transform="matrix(0.866025 -0.5 2.20305e-08 1 16.4229 18.837)" fill="#9328FF"/>
</g>
</svg>
